<?xml version="1.0" encoding="UTF-8"?>
<!DOCTYPE svg PUBLIC "-//W3C//DTD SVG 1.1//EN" "http://www.w3.org/Graphics/SVG/1.1/DTD/svg11.dtd">
<svg xmlns="http://www.w3.org/2000/svg" version="1.1" width="1080px" height="1080px" style="shape-rendering:geometricPrecision; text-rendering:geometricPrecision; image-rendering:optimizeQuality; fill-rule:evenodd; clip-rule:evenodd" xmlns:xlink="http://www.w3.org/1999/xlink">
<g><path style="opacity:1" fill="#fefefe" d="M -0.5,-0.5 C 359.5,-0.5 719.5,-0.5 1079.5,-0.5C 1079.5,359.5 1079.5,719.5 1079.5,1079.5C 719.5,1079.5 359.5,1079.5 -0.5,1079.5C -0.5,719.5 -0.5,359.5 -0.5,-0.5 Z"/></g>
<g><path style="opacity:1" fill="#feca00" d="M 532.5,27.5 C 683.739,36.5313 806.572,99.8647 901,217.5C 986.736,332.124 1017.74,460.457 994,602.5C 967.644,733.472 900.477,837.639 792.5,915C 677.286,992.212 551.286,1017.88 414.5,992C 290.816,963.767 191.649,898.6 117,796.5C 69.2134,728.226 40.3801,652.559 30.5,569.5C 29.7538,557.005 28.7538,544.671 27.5,532.5C 25.1706,378.376 80.8373,249.876 194.5,147C 291.449,64.084 404.116,24.2506 532.5,27.5 Z"/></g>
<g><path style="opacity:1" fill="#dc9402" d="M 532.5,27.5 C 705.773,29.5553 845.273,98.5553 951,234.5C 1034.54,350.452 1065.87,479.452 1045,621.5C 1015.04,782.684 929.537,904.517 788.5,987C 728.244,1020.03 663.911,1040.53 595.5,1048.5C 587.656,1048.82 579.989,1049.49 572.5,1050.5C 418.773,1057.66 286.94,1008 177,901.5C 92.4702,815.424 43.6368,712.091 30.5,591.5C 29.9147,583.988 29.9147,576.655 30.5,569.5C 40.3801,652.559 69.2134,728.226 117,796.5C 191.649,898.6 290.816,963.767 414.5,992C 551.286,1017.88 677.286,992.212 792.5,915C 900.477,837.639 967.644,733.472 994,602.5C 1017.74,460.457 986.736,332.124 901,217.5C 806.572,99.8647 683.739,36.5313 532.5,27.5 Z"/></g>
<g><path style="opacity:1" fill="#d18c00" d="M 841.5,289.5 C 832.363,282.578 823.363,274.745 814.5,266C 708.032,179.977 587.699,152.643 453.5,184C 334.607,217.897 247.44,290.064 192,400.5C 146.173,501.507 141.173,604.507 177,709.5C 180.874,719.622 185.041,729.622 189.5,739.5C 189.376,740.107 189.043,740.44 188.5,740.5C 145.7,678.726 122.2,610.06 118,534.5C 114.897,390.549 170.73,275.715 285.5,190C 379.019,126.296 481.686,104.63 593.5,125C 697.725,147.792 780.392,202.625 841.5,289.5 Z"/></g>
<g><path style="opacity:1" fill="#ffe170" d="M 256.5,128.5 C 265.366,126.435 272.199,129.101 277,136.5C 278.337,142.813 277.004,148.48 273,153.5C 268.2,159.302 263.033,164.802 257.5,170C 210.564,207.592 170.731,251.426 138,301.5C 124.333,324.833 110.667,348.167 97,371.5C 93.7126,377.892 88.5459,380.725 81.5,380C 77.7734,374.757 76.6067,368.924 78,362.5C 84.5198,336.945 94.1865,312.612 107,289.5C 129.739,246.43 158.239,207.596 192.5,173C 207.404,158.422 223.737,145.755 241.5,135C 246.443,132.525 251.443,130.359 256.5,128.5 Z"/></g>
<g><path style="opacity:1" fill="#db9400" d="M 841.5,289.5 C 904.183,382.183 925.017,483.85 904,594.5C 872.871,727.956 795.038,823.123 670.5,880C 586.79,914.926 500.79,921.259 412.5,899C 318.802,872.763 244.135,819.929 188.5,740.5C 189.043,740.44 189.376,740.107 189.5,739.5C 185.041,729.622 180.874,719.622 177,709.5C 141.173,604.507 146.173,501.507 192,400.5C 247.44,290.064 334.607,217.897 453.5,184C 587.699,152.643 708.032,179.977 814.5,266C 823.363,274.745 832.363,282.578 841.5,289.5 Z"/></g>
<g><path style="opacity:1" fill="#feca00" d="M 460.5,213.5 C 468.277,216.113 473.111,221.446 475,229.5C 475.5,243.163 475.667,256.829 475.5,270.5C 485.167,270.5 494.833,270.5 504.5,270.5C 507.833,270.5 511.167,270.5 514.5,270.5C 514.333,256.496 514.5,242.496 515,228.5C 517.5,220.667 522.667,215.5 530.5,213C 541.879,212.21 553.213,212.377 564.5,213.5C 571.845,216.012 576.678,221.012 579,228.5C 579.5,243.163 579.667,257.83 579.5,272.5C 587.898,272.454 596.231,273.12 604.5,274.5C 627.517,277.498 648.851,285.332 668.5,298C 672,300.669 675.333,303.502 678.5,306.5C 698.652,327.43 708.319,352.597 707.5,382C 705.543,436.624 678.543,472.29 626.5,489C 640.555,491.851 654.221,496.018 667.5,501.5C 677.489,506.831 686.822,513.164 695.5,520.5C 714.145,539.215 724.645,561.882 727,588.5C 730.509,620.961 724.843,651.627 710,680.5C 697.369,701.067 679.869,715.9 657.5,725C 632.458,734.675 606.458,739.508 579.5,739.5C 579.667,755.503 579.5,771.503 579,787.5C 576.132,795.701 570.632,801.201 562.5,804C 552.167,804.667 541.833,804.667 531.5,804C 523.244,801.245 517.911,795.745 515.5,787.5C 514.527,777.916 514.194,768.25 514.5,758.5C 514.5,752.167 514.5,745.833 514.5,739.5C 501.5,739.5 488.5,739.5 475.5,739.5C 475.667,755.17 475.5,770.837 475,786.5C 472.397,796.103 466.231,801.936 456.5,804C 446.833,804.667 437.167,804.667 427.5,804C 419.25,801.731 413.917,796.565 411.5,788.5C 410.526,778.582 410.193,768.582 410.5,758.5C 410.5,752.167 410.5,745.833 410.5,739.5C 385.164,739.667 359.831,739.5 334.5,739C 328.253,736.921 324.253,732.754 322.5,726.5C 313.913,689.752 328.247,674.752 365.5,681.5C 365.5,572.167 365.5,462.833 365.5,353.5C 365.5,347.5 365.5,341.5 365.5,335.5C 356.161,335.666 346.827,335.5 337.5,335C 329.987,332.652 324.987,327.818 322.5,320.5C 321.376,308.879 321.209,297.213 322,285.5C 324.365,279.798 328.199,275.298 333.5,272C 359.115,270.537 384.782,270.037 410.5,270.5C 410.333,256.496 410.5,242.496 411,228.5C 413.435,221.066 418.268,215.899 425.5,213C 437.213,212.209 448.879,212.376 460.5,213.5 Z"/></g>
<g><path style="opacity:1" fill="#b17700" d="M 460.5,213.5 C 469.657,212.342 478.991,212.176 488.5,213C 496.333,215.5 501.5,220.667 504,228.5C 504.5,242.496 504.667,256.496 504.5,270.5C 494.833,270.5 485.167,270.5 475.5,270.5C 475.667,256.829 475.5,243.163 475,229.5C 473.111,221.446 468.277,216.113 460.5,213.5 Z"/></g>
<g><path style="opacity:1" fill="#b17700" d="M 564.5,213.5 C 573.657,212.342 582.991,212.176 592.5,213C 599.519,215.351 604.686,219.851 608,226.5C 608.5,242.497 608.667,258.497 608.5,274.5C 607.167,274.5 605.833,274.5 604.5,274.5C 596.231,273.12 587.898,272.454 579.5,272.5C 579.667,257.83 579.5,243.163 579,228.5C 576.678,221.012 571.845,216.012 564.5,213.5 Z"/></g>
<g><path style="opacity:1" fill="#b17700" d="M 667.5,501.5 C 654.221,496.018 640.555,491.851 626.5,489C 678.543,472.29 705.543,436.624 707.5,382C 708.319,352.597 698.652,327.43 678.5,306.5C 709.735,319.288 728.568,342.622 735,376.5C 740.929,409.527 734.596,439.86 716,467.5C 703.241,483.769 687.074,495.103 667.5,501.5 Z"/></g>
<g><path style="opacity:1" fill="#b17700" d="M 322.5,320.5 C 324.987,327.818 329.987,332.652 337.5,335C 346.827,335.5 356.161,335.666 365.5,335.5C 365.5,341.5 365.5,347.5 365.5,353.5C 356.161,353.666 346.827,353.5 337.5,353C 329.701,350.535 324.535,345.368 322,337.5C 321.182,331.651 321.348,325.985 322.5,320.5 Z"/></g>
<g><path style="opacity:1" fill="#b17700" d="M 599.5,354.5 C 599.265,355.097 598.765,355.43 598,355.5C 567.207,346.41 536.041,344.077 504.5,348.5C 503.501,388.663 503.168,428.997 503.5,469.5C 499.833,469.5 496.167,469.5 492.5,469.5C 486.489,468.893 480.489,468.226 474.5,467.5C 474.5,421.5 474.5,375.5 474.5,329.5C 505.566,326.412 536.233,328.578 566.5,336C 578.758,340.124 589.758,346.29 599.5,354.5 Z"/></g>
<g><path style="opacity:1" fill="#db9400" d="M 599.5,354.5 C 616.459,372.252 621.959,393.252 616,417.5C 608.703,442.795 592.203,458.628 566.5,465C 546.138,469.979 525.472,471.812 504.5,470.5C 504.5,429.833 504.5,389.167 504.5,348.5C 536.041,344.077 567.207,346.41 598,355.5C 598.765,355.43 599.265,355.097 599.5,354.5 Z"/></g>
<g><path style="opacity:1" fill="#c58600" d="M 504.5,348.5 C 504.5,389.167 504.5,429.833 504.5,470.5C 500.298,470.817 496.298,470.483 492.5,469.5C 496.167,469.5 499.833,469.5 503.5,469.5C 503.168,428.997 503.501,388.663 504.5,348.5 Z"/></g>
<g><path style="opacity:1" fill="#b17700" d="M 515.5,787.5 C 517.911,795.745 523.244,801.245 531.5,804C 541.833,804.667 552.167,804.667 562.5,804C 570.632,801.201 576.132,795.701 579,787.5C 579.5,771.503 579.667,755.503 579.5,739.5C 606.458,739.508 632.458,734.675 657.5,725C 679.869,715.9 697.369,701.067 710,680.5C 724.843,651.627 730.509,620.961 727,588.5C 724.645,561.882 714.145,539.215 695.5,520.5C 723.638,532.504 742.471,553.504 752,583.5C 757.56,610.121 757.894,636.787 753,663.5C 744.224,701.91 721.724,728.744 685.5,744C 660.684,753.189 635.018,757.689 608.5,757.5C 608.667,771.171 608.5,784.837 608,798.5C 604.594,809.573 597.427,817.073 586.5,821C 577.892,822.106 569.225,822.606 560.5,822.5C 543.29,826.268 529.457,821.268 519,807.5C 515.409,801.067 514.242,794.4 515.5,787.5 Z"/></g>
<g><path style="opacity:1" fill="#b17700" d="M 608.5,559.5 C 608.083,560.124 607.416,560.457 606.5,560.5C 589.73,554.567 572.397,551.401 554.5,551C 538.091,550.051 521.758,550.551 505.5,552.5C 504.5,597.828 504.167,643.162 504.5,688.5C 494.5,688.5 484.5,688.5 474.5,688.5C 474.5,636.833 474.5,585.167 474.5,533.5C 501.26,531.578 527.926,532.411 554.5,536C 574.641,539.245 592.641,547.078 608.5,559.5 Z"/></g>
<g><path style="opacity:1" fill="#db9400" d="M 608.5,559.5 C 620.035,569.556 627.201,582.223 630,597.5C 634.943,627.374 625.109,650.874 600.5,668C 570.452,683.619 538.452,690.452 504.5,688.5C 504.167,643.162 504.5,597.828 505.5,552.5C 521.758,550.551 538.091,550.051 554.5,551C 572.397,551.401 589.73,554.567 606.5,560.5C 607.416,560.457 608.083,560.124 608.5,559.5 Z"/></g>
<g><path style="opacity:1" fill="#e5aa35" d="M 27.5,532.5 C 28.7538,544.671 29.7538,557.005 30.5,569.5C 29.9147,576.655 29.9147,583.988 30.5,591.5C 27.9937,572.066 26.9937,552.4 27.5,532.5 Z"/></g>
<g><path style="opacity:1" fill="#b27800" d="M 322.5,726.5 C 324.253,732.754 328.253,736.921 334.5,739C 359.831,739.5 385.164,739.667 410.5,739.5C 410.5,745.833 410.5,752.167 410.5,758.5C 386.164,758.667 361.831,758.5 337.5,758C 322.832,752.181 317.832,741.681 322.5,726.5 Z"/></g>
<g><path style="opacity:1" fill="#b17700" d="M 514.5,758.5 C 511.167,758.5 507.833,758.5 504.5,758.5C 504.667,771.171 504.5,783.838 504,796.5C 500.944,809.89 492.777,818.39 479.5,822C 464.5,822.667 449.5,822.667 434.5,822C 417.699,816.756 410.032,805.589 411.5,788.5C 413.917,796.565 419.25,801.731 427.5,804C 437.167,804.667 446.833,804.667 456.5,804C 466.231,801.936 472.397,796.103 475,786.5C 475.5,770.837 475.667,755.17 475.5,739.5C 488.5,739.5 501.5,739.5 514.5,739.5C 514.5,745.833 514.5,752.167 514.5,758.5 Z"/></g>
<g><path style="opacity:1" fill="#f8e4c1" d="M 595.5,1048.5 C 588.07,1050.2 580.403,1050.86 572.5,1050.5C 579.989,1049.49 587.656,1048.82 595.5,1048.5 Z"/></g>
</svg>
